<svg width="24" height="28" viewBox="0 0 24 28" fill="none" xmlns="http://www.w3.org/2000/svg">
<path fill-rule="evenodd" clip-rule="evenodd" d="M21.4657 13.2961C21.0836 11.8691 20.3874 10.5456 19.4278 9.42238C18.4683 8.29914 17.2699 7.40461 15.9201 6.80422C14.5704 6.20383 13.1035 5.91277 11.6267 5.95233C10.15 5.99189 8.70079 6.36107 7.38512 7.03287C7.26863 7.09565 7.14077 7.13452 7.00904 7.14717C6.87732 7.15982 6.74439 7.146 6.61808 7.10654C6.49177 7.06707 6.37463 7.00274 6.27354 6.91734C6.17245 6.83194 6.08946 6.72719 6.02944 6.60925C5.96943 6.49131 5.9336 6.36256 5.92407 6.23057C5.91453 6.09859 5.93149 5.96602 5.97393 5.84068C6.01637 5.71534 6.08345 5.59975 6.17122 5.50071C6.25898 5.40167 6.36567 5.32118 6.48499 5.26397C8.98846 3.98554 11.8638 3.63506 14.6011 4.27468C17.3383 4.9143 19.7606 6.50268 21.4383 8.75813C23.1161 11.0136 23.9408 13.7903 23.7662 16.5959C23.5916 19.4015 22.4291 22.0546 20.4847 24.0847C18.5403 26.1147 15.9398 27.3906 13.1444 27.686C10.3489 27.9813 7.53922 27.2771 5.21353 25.6982C2.88785 24.1193 1.19651 21.7677 0.439475 19.0606C-0.317562 16.3534 -0.0913664 13.4656 1.07794 10.9094C1.12876 10.7857 1.20403 10.6736 1.29923 10.5798C1.39444 10.486 1.50761 10.4123 1.63197 10.3633C1.75633 10.3143 1.88931 10.2909 2.02293 10.2945C2.15656 10.2981 2.28808 10.3287 2.4096 10.3844C2.53112 10.44 2.64015 10.5197 2.73013 10.6186C2.82011 10.7174 2.8892 10.8334 2.93326 10.9596C2.97731 11.0858 2.99542 11.2196 2.9865 11.353C2.97758 11.4864 2.94181 11.6166 2.88134 11.7358C2.21888 13.1815 1.91405 14.7654 1.99258 16.3538C2.07111 17.9421 2.5307 19.4882 3.33255 20.8615C4.13439 22.2349 5.25493 23.3951 6.59954 24.2442C7.94415 25.0933 9.47335 25.6064 11.058 25.7401C12.6426 25.8738 14.2362 25.6242 15.7041 25.0124C17.172 24.4006 18.4711 23.4446 19.4917 22.2251C20.5123 21.0055 21.2245 19.5583 21.5681 18.0056C21.9117 16.4529 21.8765 14.8403 21.4657 13.304V13.2961Z" fill="black"/>
<path fill-rule="evenodd" clip-rule="evenodd" d="M11.6012 0.291237C11.5092 0.19892 11.3998 0.125676 11.2794 0.0757003C11.159 0.0257247 11.0299 0 10.8995 0C10.7691 0 10.64 0.0257247 10.5196 0.0757003C10.3992 0.125676 10.2898 0.19892 10.1977 0.291237L5.2423 5.24665C5.14999 5.33872 5.07674 5.44809 5.02677 5.56851C4.97679 5.68893 4.95107 5.81803 4.95107 5.94841C4.95107 6.07879 4.97679 6.20788 5.02677 6.3283C5.07674 6.44872 5.14999 6.5581 5.2423 6.65017L10.1977 11.6056C10.2892 11.7009 10.3987 11.7771 10.5199 11.8296C10.6412 11.882 10.7717 11.9098 10.9038 11.9112C11.0359 11.9125 11.1669 11.8875 11.2893 11.8376C11.4116 11.7877 11.5227 11.7139 11.6161 11.6205C11.7095 11.5271 11.7834 11.4159 11.8333 11.2936C11.8832 11.1713 11.9082 11.0402 11.9068 10.9081C11.9054 10.776 11.8777 10.6455 11.8252 10.5243C11.7727 10.4031 11.6966 10.2935 11.6012 10.2021L7.34522 5.94919L11.6012 1.69475C11.6935 1.60268 11.7668 1.49331 11.8168 1.37289C11.8667 1.25247 11.8925 1.12337 11.8925 0.992993C11.8925 0.862615 11.8667 0.733518 11.8168 0.613098C11.7668 0.492678 11.6935 0.383303 11.6012 0.291237Z" fill="black"/>
</svg>
