<svg width="19" height="31" viewBox="0 0 19 31" fill="none" xmlns="http://www.w3.org/2000/svg">
<path d="M3.1566 30.9966C3.94268 31.0141 4.70411 30.7194 5.27677 30.1762L18.382 16.8874C18.5767 16.7093 18.7322 16.4921 18.8386 16.2498C18.945 16.0076 19 15.7455 19 15.4805C19 15.2155 18.945 14.9534 18.8386 14.7111C18.7322 14.4688 18.5767 14.2517 18.382 14.0736L4.80503 0.800834C4.28535 0.33908 3.63036 0.0610247 2.93962 0.00893411C2.24888 -0.0431565 1.56015 0.133565 0.978131 0.512237C0.713404 0.663217 0.487886 0.875243 0.320025 1.13097C0.152165 1.3867 0.0467316 1.67886 0.0123505 1.98356C-0.0220306 2.28826 0.0156161 2.59683 0.122213 2.88404C0.22881 3.17126 0.401328 3.42894 0.625653 3.63602L12.7556 15.4979L1.03379 27.3677C0.710298 27.6586 0.496988 28.0536 0.430285 28.4854C0.363581 28.9172 0.447624 29.359 0.668058 29.7353C0.939637 30.1442 1.31156 30.4752 1.74764 30.6963C2.18372 30.9173 2.66912 31.0207 3.1566 30.9966Z" fill="black"/>
</svg>
