<svg width="28" height="39" viewBox="0 0 28 39" fill="none" xmlns="http://www.w3.org/2000/svg">
<path fill-rule="evenodd" clip-rule="evenodd" d="M13.9447 30.5245L27.819 38.8503V5.55102C27.819 4.82211 27.6755 4.10034 27.3965 3.42692C27.1176 2.7535 26.7087 2.14161 26.1933 1.6262C25.6779 1.11079 25.066 0.701937 24.3926 0.422997C23.7192 0.144057 22.9974 0.000488281 22.2685 0.000488281H5.62084C4.14875 0.000488281 2.73695 0.585274 1.69602 1.6262C0.655098 2.66713 0.0703125 4.07893 0.0703125 5.55102V38.8503L13.9447 30.5245ZM2.84558 33.9476L13.9447 27.2932L25.0438 33.9476V5.55102C25.0438 4.81497 24.7514 4.10907 24.2309 3.58861C23.7105 3.06815 23.0046 2.77575 22.2685 2.77575H5.62084C4.8848 2.77575 4.1789 3.06815 3.65843 3.58861C3.13797 4.10907 2.84558 4.81497 2.84558 5.55102V33.9476Z" fill="black"/>
</svg>
