<svg width="32" height="40" viewBox="0 0 32 40" fill="none" xmlns="http://www.w3.org/2000/svg">
<path fill-rule="evenodd" clip-rule="evenodd" d="M15.9996 2.28169C14.7893 2.28169 13.6286 2.76247 12.7728 3.61827C11.917 4.47407 11.4362 5.63478 11.4362 6.84507V17.1136C11.4245 17.4083 11.2992 17.687 11.0865 17.8914C10.8738 18.0958 10.5903 18.2099 10.2954 18.2099C10.0004 18.2099 9.71693 18.0958 9.50427 17.8914C9.2916 17.687 9.16627 17.4083 9.15454 17.1136V6.84507C9.15454 5.02964 9.87572 3.28857 11.1594 2.00487C12.4431 0.721174 14.1842 0 15.9996 0C17.815 0 19.5561 0.721174 20.8398 2.00487C22.1235 3.28857 22.8447 5.02964 22.8447 6.84507V17.1136C22.8329 17.4083 22.7076 17.687 22.4949 17.8914C22.2823 18.0958 21.9988 18.2099 21.7038 18.2099C21.4089 18.2099 21.1254 18.0958 20.9127 17.8914C20.7 17.687 20.5747 17.4083 20.563 17.1136V6.84507C20.563 5.63478 20.0822 4.47407 19.2264 3.61827C18.3706 2.76247 17.2099 2.28169 15.9996 2.28169Z" fill="black"/>
<path fill-rule="evenodd" clip-rule="evenodd" d="M5.5148 13.69C5.23193 13.6899 4.95909 13.7948 4.74915 13.9844C4.53921 14.174 4.40712 14.4347 4.37847 14.7161L2.29731 30.4676C2.2504 30.9432 2.3036 31.4234 2.45348 31.8772C2.60336 32.331 2.84661 32.7484 3.16756 33.1025C3.4885 33.4567 3.88005 33.7397 4.31698 33.9334C4.75392 34.127 5.22656 34.2271 5.70449 34.227H26.2993C26.7769 34.2265 27.2492 34.1261 27.6857 33.9323C28.1222 33.7384 28.5133 33.4553 28.8338 33.1012C29.1544 32.7471 29.3973 32.3299 29.547 31.8763C29.6966 31.4227 29.7497 30.9429 29.7029 30.4676L27.6199 14.7234C27.5913 14.4423 27.4595 14.1817 27.2499 13.9922C27.0403 13.8027 26.7679 13.6976 26.4854 13.6972H5.51661L5.5148 13.69ZM2.10763 14.4885C2.19675 13.6465 2.59395 12.8671 3.22288 12.3002C3.85181 11.7333 4.66809 11.4189 5.5148 11.4174H26.4836C27.3317 11.4191 28.1491 11.7348 28.7783 12.3036C29.4074 12.8724 29.8037 13.6539 29.8907 14.4975L31.9719 30.2453C32.0509 31.0383 31.9629 31.8389 31.7136 32.5957C31.4643 33.3526 31.0592 34.0488 30.5245 34.6395C29.9897 35.2302 29.3372 35.7024 28.6088 36.0256C27.8805 36.3488 27.0925 36.5158 26.2957 36.5159H5.70449C4.9075 36.5158 4.11936 36.3488 3.39089 36.0255C2.66241 35.7022 2.00975 35.2298 1.47498 34.6389C0.940199 34.048 0.535172 33.3515 0.285996 32.5945C0.0368211 31.8374 -0.0509731 31.0366 0.0282719 30.2435L2.10943 14.4921L2.10763 14.4885Z" fill="black"/>
<path d="M15.529 28.4857V19.3777H16.519V28.4857H15.529ZM11.349 24.4157V23.4697H20.699V24.4157H11.349Z" fill="black"/>
</svg>
