<svg width="42" height="39" viewBox="0 0 42 39" fill="none" xmlns="http://www.w3.org/2000/svg">
<path fill-rule="evenodd" clip-rule="evenodd" d="M20.7154 7.11671L18.858 5.20847C17.7566 4.1943 16.4358 3.4481 14.9987 3.02798C13.5616 2.60787 12.0469 2.52519 10.5726 2.78637C9.09827 3.04756 7.70416 3.64556 6.49883 4.53381C5.2935 5.42205 4.30949 6.57656 3.62344 7.9074C2.26908 10.5574 1.96377 14.3817 4.43763 19.259C6.8195 23.9562 11.777 29.5889 20.7174 35.7227C29.6577 29.5909 34.6132 23.9581 36.9971 19.259C39.4709 14.3661 39.1676 10.5515 37.8113 7.9074C37.1252 6.57637 36.1411 5.42168 34.9357 4.53325C33.7303 3.64481 32.336 3.04662 30.8616 2.78525C29.3871 2.52388 27.8722 2.60639 26.4349 3.02636C24.9975 3.44632 23.6765 4.19241 22.5747 5.20651L20.7154 7.11671ZM20.7154 38.8463C-18.9877 12.6066 8.48896 -7.87324 20.2594 2.96164C20.414 3.10451 20.5686 3.2513 20.7154 3.40396C20.8615 3.2513 21.0135 3.10451 21.1714 2.9636C32.9399 -7.87912 60.4244 12.6046 20.7154 38.8483V38.8463Z" fill="black"/>
</svg>
