<svg width="18" height="20" viewBox="0 0 18 20" fill="none" xmlns="http://www.w3.org/2000/svg">
<path fill-rule="evenodd" clip-rule="evenodd" d="M13.0649 8.51083C13.0635 9.35583 12.8135 10.1814 12.3465 10.8833C11.8795 11.5851 11.2165 12.1317 10.4414 12.4539C9.66617 12.776 8.81359 12.8593 7.99142 12.6933C7.16925 12.5272 6.4144 12.1192 5.8223 11.5209C5.2302 10.9225 4.82744 10.1607 4.66495 9.33171C4.50245 8.50272 4.58751 7.64379 4.90937 6.86351C5.23124 6.08324 5.77545 5.41665 6.47321 4.94802C7.17097 4.47939 7.99095 4.22977 8.82947 4.23072C9.3865 4.23134 9.93795 4.34257 10.4523 4.55803C10.9667 4.77349 11.4339 5.08898 11.8272 5.48645C12.2205 5.88393 12.5323 6.35561 12.7446 6.87455C12.957 7.39348 13.0658 7.9495 13.0649 8.51083ZM10.9436 8.51083C10.9413 8.93341 10.8147 9.34581 10.5799 9.69592C10.3451 10.046 10.0125 10.3182 9.62431 10.4779C9.23608 10.6377 8.80958 10.6779 8.39869 10.5935C7.98779 10.5091 7.61094 10.3038 7.31575 10.0037C7.02056 9.70353 6.82026 9.32195 6.74017 8.90714C6.66008 8.49233 6.70379 8.06291 6.86578 7.67313C7.02776 7.28334 7.30076 6.95069 7.65027 6.71718C7.99978 6.48368 8.41013 6.35981 8.82947 6.36122C9.10844 6.36216 9.38449 6.41854 9.64181 6.52713C9.89913 6.63573 10.1327 6.79441 10.329 6.99408C10.5254 7.19375 10.6808 7.4305 10.7863 7.69076C10.8917 7.95103 10.9452 8.2297 10.9436 8.51083Z" fill="#959595"/>
<path fill-rule="evenodd" clip-rule="evenodd" d="M2.66503 13.8727C1.85581 13.1859 1.20015 12.3342 0.741252 11.3736C0.28235 10.413 0.0306126 9.36538 0.00262193 8.29965C-0.0253687 7.23392 0.171022 6.17431 0.578859 5.19061C0.986695 4.2069 1.59672 3.32143 2.36876 2.59251C4.00476 1.04995 6.14744 0.168941 8.38736 0.117833C10.6273 0.0667251 12.8073 0.849105 14.5109 2.31546C15.3203 3.00204 15.9762 3.85362 16.4353 4.81412C16.8944 5.77461 17.1463 6.82222 17.1746 7.88795C17.2028 8.95368 17.0066 10.0133 16.599 10.9971C16.1913 11.9809 15.5815 12.8665 14.8096 13.5956L8.88425 19.373L2.66503 13.8727ZM13.4254 12.3728L8.81789 16.8677L3.98045 12.5877C3.35054 12.0543 2.83998 11.3923 2.48241 10.6455C2.12485 9.89873 1.92839 9.08407 1.906 8.25521C1.88361 7.42635 2.03578 6.60211 2.35249 5.83683C2.66921 5.07154 3.14327 4.38258 3.74344 3.81534C5.01567 2.61564 6.68204 1.93048 8.424 1.89082C10.166 1.85117 11.8613 2.45981 13.186 3.60039C13.8159 4.13388 14.3265 4.79583 14.6841 5.54262C15.0416 6.2894 15.2381 7.10407 15.2605 7.93293C15.2829 8.76179 15.1307 9.58603 14.814 10.3513C14.4973 11.1166 14.0232 11.8056 13.423 12.3728H13.4254Z" fill="#959595"/>
</svg>
