<svg width="33" height="39" viewBox="0 0 33 39" fill="none" xmlns="http://www.w3.org/2000/svg">
<path d="M26.6468 25.0824C25.6795 25.0983 24.7294 25.3446 23.8733 25.8014C23.0171 26.2582 22.2789 26.9128 21.7181 27.7122L12.4539 21.3519C12.7914 20.1513 12.7914 18.879 12.4539 17.6784L21.7181 11.3181C22.5955 12.58 23.9126 13.457 25.4032 13.7718C26.8937 14.0867 28.4465 13.8159 29.7478 13.0143C31.0817 12.1375 32.0884 10.8339 32.6081 9.31047C33.1278 7.78704 33.1307 6.13119 32.6162 4.60594C32.1879 3.10561 31.2318 1.81673 29.9291 0.983544C28.6263 0.150359 27.0675 -0.169239 25.5479 0.0853154C24.0211 0.438914 22.6635 1.32087 21.7085 2.57955C20.7535 3.83823 20.2608 5.395 20.3149 6.98221C20.3208 7.60335 20.4061 8.22109 20.5688 8.81994L11.3007 15.1881C10.5354 14.0768 9.42855 13.254 8.15321 12.8482C6.87787 12.4425 5.50591 12.4767 4.25177 12.9455C2.97197 13.4774 1.88096 14.3899 1.1223 15.5627C0.363644 16.7355 -0.0271086 18.1138 0.00146204 19.5161C-0.0271086 20.9185 0.363644 22.2967 1.1223 23.4696C1.88096 24.6424 2.97197 25.5548 4.25177 26.0867C5.50591 26.5556 6.87787 26.5898 8.15321 26.184C9.42855 25.7783 10.5354 24.9554 11.3007 23.8441L20.565 30.2044C20.4023 30.8033 20.3169 31.421 20.3111 32.0422C20.2444 33.8161 20.8738 35.5444 22.0614 36.8486C23.2489 38.1528 24.8978 38.9264 26.6468 39C28.3957 38.9264 30.0446 38.1528 31.2322 36.8486C32.4197 35.5444 33.0491 33.8161 32.9825 32.0422C33.0497 30.268 32.4205 28.5391 31.2329 27.2345C30.0453 25.9299 28.3961 25.156 26.6468 25.0824ZM26.6468 2.81538C27.6963 2.85934 28.6859 3.32342 29.3987 4.10593C30.1114 4.88844 30.4893 5.92557 30.4494 6.99007C30.4887 8.05424 30.1107 9.09086 29.3979 9.87294C28.6852 10.655 27.696 11.1188 26.6468 11.1628C25.5972 11.1188 24.6077 10.6548 23.8949 9.87225C23.1821 9.08974 22.8043 8.05261 22.8442 6.98811C22.8048 5.92394 23.1829 4.88732 23.8956 4.10523C24.6083 3.32315 25.5976 2.85935 26.6468 2.81538ZM6.37013 23.6908C5.32093 23.6463 4.33186 23.182 3.61951 22.3996C2.90716 21.6171 2.52959 20.5803 2.56948 19.5161C2.5296 18.4516 2.90744 17.4145 3.6202 16.632C4.33296 15.8495 5.32253 15.3854 6.37207 15.3414C7.42128 15.3859 8.41035 15.8502 9.1227 16.6327C9.83504 17.4151 10.2126 18.4519 10.1727 19.5161C10.2126 20.5806 9.83477 21.6178 9.12201 22.4003C8.40924 23.1828 7.41968 23.6469 6.37013 23.6908ZM26.6468 36.2169C25.6127 36.1317 24.6481 35.6549 23.9449 34.8814C23.2416 34.1079 22.8511 33.0943 22.8511 32.0422C22.8511 30.9901 23.2416 29.9765 23.9449 29.2029C24.6481 28.4294 25.6127 27.9527 26.6468 27.8675C27.6809 27.9527 28.6454 28.4294 29.3487 29.2029C30.052 29.9765 30.4424 30.9901 30.4424 32.0422C30.4424 33.0943 30.052 34.1079 29.3487 34.8814C28.6454 35.6549 27.6809 36.1317 26.6468 36.2169Z" fill="black"/>
</svg>
