<svg width="27" height="31" viewBox="0 0 27 31" fill="none" xmlns="http://www.w3.org/2000/svg">
<path fill-rule="evenodd" clip-rule="evenodd" d="M8.38539 2.98302C6.55541 3.47444 4.73802 4.0091 2.93321 4.58698C2.76996 4.63748 2.62423 4.73295 2.51273 4.86245C2.40123 4.99195 2.32847 5.15025 2.30279 5.31919C1.7997 8.33576 1.92451 11.4237 2.66943 14.3898C3.41435 17.3559 4.76335 20.1364 6.63202 22.5573C7.87976 24.1649 9.36115 25.5765 11.0269 26.7454C11.5697 27.1253 12.143 27.4598 12.7409 27.7452C12.9232 27.8315 13.1114 27.905 13.304 27.9652C13.3679 27.9861 13.4332 28.0025 13.4994 28.0144C13.5651 28.0047 13.63 27.9893 13.6931 27.9684C13.8854 27.9067 14.0734 27.8327 14.2562 27.7468C14.8542 27.4616 15.4275 27.1272 15.9702 26.747C17.6358 25.578 19.1172 24.1664 20.3651 22.559C22.2345 20.1384 23.584 17.358 24.3292 14.3918C25.0745 11.4256 25.1993 8.33751 24.6959 5.32084C24.6703 5.15189 24.5975 4.9936 24.486 4.86409C24.3745 4.73459 24.2288 4.63912 24.0655 4.58863C22.8129 4.18804 20.7 3.53628 18.6133 2.98466C16.9459 2.48396 15.2319 2.15392 13.4977 1.99962C11.7647 2.15339 10.0518 2.48288 8.38539 2.98302ZM7.87317 1.0507C9.70618 0.500377 11.5929 0.14813 13.501 0C15.409 0.148642 17.2957 0.500879 19.1288 1.0507C20.9895 1.55088 22.8381 2.0943 24.6746 2.68094C25.1982 2.84614 25.6645 3.15609 26.0195 3.57499C26.3745 3.99389 26.6037 4.50466 26.6808 5.04831C27.2186 8.32932 27.0757 11.6859 26.2608 14.9093C25.446 18.1327 23.9768 21.154 21.9444 23.7853C20.5704 25.5507 18.9395 27.1002 17.1062 28.3822C16.4688 28.8286 15.795 29.2208 15.0918 29.5544C14.5965 29.8095 14.055 29.9625 13.4994 30.0042C12.9438 29.9625 12.4022 29.8095 11.9069 29.5544C11.2036 29.221 10.5298 28.8289 9.89249 28.3822C8.06036 27.0999 6.43065 25.5504 5.05761 23.7853C3.02437 21.1545 1.55443 18.1333 0.739301 14.9097C-0.0758275 11.6862 -0.218697 8.32943 0.319585 5.04831C0.396596 4.50439 0.626037 3.9934 0.981361 3.57445C1.33669 3.15549 1.80337 2.84571 2.32742 2.68094C4.16287 2.0932 6.01145 1.54979 7.87317 1.0507Z" fill="black"/>
<path d="M13.501 3.50195C16.399 3.89828 19.2501 4.58356 22.0117 5.54754C22.3555 5.65286 22.6619 5.8545 22.8947 6.12858C23.1275 6.40267 23.2768 6.73771 23.325 7.09405C24.952 19.9455 15.0606 26.0035 13.501 26.0035V3.50195Z" fill="black"/>
</svg>
