<svg width="81" height="13" viewBox="0 0 81 13" fill="none" xmlns="http://www.w3.org/2000/svg">
<path d="M6.57401 1L8.297 4.49L12.15 5.054L9.36502 7.767L10.023 11.604L6.577 9.792L3.13101 11.604L3.789 7.767L1 5.052L4.853 4.488L6.57401 1Z" fill="#141414" stroke="black" stroke-width="2" stroke-linecap="round" stroke-linejoin="round"/>
<path d="M23.302 1L25.025 4.49L28.878 5.054L26.093 7.767L26.751 11.604L23.305 9.792L19.859 11.604L20.517 7.767L17.729 5.052L21.582 4.488L23.302 1Z" fill="#141414" stroke="black" stroke-width="2" stroke-linecap="round" stroke-linejoin="round"/>
<path d="M40.03 1L41.753 4.49L45.606 5.054L42.821 7.767L43.479 11.604L40.033 9.792L36.587 11.604L37.245 7.767L34.457 5.052L38.31 4.488L40.03 1Z" fill="#141414" stroke="black" stroke-width="2" stroke-linecap="round" stroke-linejoin="round"/>
<path d="M56.7571 1L58.4801 4.49L62.3331 5.054L59.5481 7.767L60.2061 11.604L56.7601 9.792L53.3141 11.604L53.9721 7.767L51.1831 5.052L55.0361 4.488L56.7571 1Z" fill="#141414" stroke="black" stroke-width="2" stroke-linecap="round" stroke-linejoin="round"/>
<path d="M73.4851 1L75.2081 4.49L79.0611 5.054L76.2762 7.767L76.9341 11.604L73.4881 9.792L70.0421 11.604L70.7001 7.767L67.9111 5.052L71.7641 4.488L73.4851 1Z" fill="#141414" stroke="black" stroke-width="2" stroke-linecap="round" stroke-linejoin="round"/>
</svg>
