<svg width="32" height="24" viewBox="0 0 32 24" fill="none" xmlns="http://www.w3.org/2000/svg">
<path fill-rule="evenodd" clip-rule="evenodd" d="M3.64997e-07 2.99907C3.64997e-07 2.20367 0.315973 1.44084 0.878409 0.878409C1.44084 0.315973 2.20367 3.64999e-07 2.99907 3.64999e-07H20.998C21.3919 -0.000193995 21.7821 0.0772356 22.1461 0.227866C22.5101 0.378497 22.8409 0.599376 23.1196 0.877885C23.3982 1.15639 23.6193 1.48708 23.7701 1.85104C23.9209 2.215 23.9985 2.60511 23.9985 2.99907V16.9987H21.9981V2.99907C21.9981 2.73381 21.8928 2.47941 21.7052 2.29184C21.5176 2.10427 21.2632 1.99889 20.998 1.99889H2.99907C2.73381 1.99889 2.47941 2.10427 2.29184 2.29184C2.10427 2.47941 1.99889 2.73381 1.99889 2.99907V16.9987C1.99889 17.264 2.10427 17.5184 2.29184 17.7059C2.38471 17.7988 2.49497 17.8725 2.61632 17.9227C2.73767 17.973 2.86773 17.9989 2.99907 17.9989V19.9993C2.60511 19.9993 2.215 19.9216 1.85104 19.7708C1.48708 19.62 1.15639 19.399 0.877886 19.1203C0.599376 18.8417 0.378497 18.5109 0.227867 18.1468C0.0772359 17.7828 -0.000193995 17.3927 3.64997e-07 16.9987V2.99907ZM8.9987 17.9989H20.998V19.9993H8.9987V17.9989Z" fill="black"/>
<path fill-rule="evenodd" clip-rule="evenodd" d="M22.0003 5.99951H26.044C26.4933 5.99996 26.9368 6.10138 27.3417 6.29626C27.7466 6.49115 28.1025 6.77453 28.3831 7.12546L31.3423 10.8244C31.7687 11.3567 32.0009 12.0184 32.0007 12.7005V16.9912C32.0018 17.3857 31.9252 17.7765 31.7751 18.1413C31.625 18.5061 31.4044 18.8377 31.1259 19.1171C30.8475 19.3965 30.5167 19.6182 30.1524 19.7696C29.7881 19.9209 29.3976 19.9989 29.0031 19.9991H26.9983V17.9988H29.0031C29.2684 17.9988 29.5228 17.8934 29.7103 17.7058C29.8979 17.5182 30.0033 17.2638 30.0033 16.9986V12.699C30.0032 12.472 29.926 12.2519 29.7843 12.0746L26.8252 8.37569C26.7318 8.25791 26.6131 8.1627 26.4778 8.09712C26.3426 8.03155 26.1943 7.9973 26.044 7.99692H23.9992V16.9956H22.0003V5.99951ZM6.00032 21.998C6.39596 21.9977 6.78262 21.8801 7.11142 21.6601C7.44021 21.44 7.69637 21.1274 7.84751 20.7618C7.99864 20.3962 8.03796 19.9939 7.96048 19.606C7.88301 19.218 7.69223 18.8617 7.41227 18.5821C7.13231 18.3026 6.77573 18.1123 6.38764 18.0354C5.99955 17.9585 5.59737 17.9984 5.23197 18.1501C4.86656 18.3018 4.55433 18.5584 4.33477 18.8875C4.11521 19.2167 3.99818 19.6035 3.99847 19.9991C3.99867 20.2618 4.0506 20.5219 4.15131 20.7645C4.25201 21.0072 4.39952 21.2276 4.58541 21.4132C4.7713 21.5988 4.99193 21.746 5.2347 21.8463C5.47747 21.9467 5.73763 21.9982 6.00032 21.998ZM6.00032 23.9984C6.79042 23.9984 7.56278 23.7641 8.21972 23.3251C8.87667 22.8862 9.3887 22.2623 9.69105 21.5323C9.99341 20.8024 10.0725 19.9991 9.91838 19.2242C9.76424 18.4493 9.38377 17.7375 8.82509 17.1788C8.2664 16.6201 7.55459 16.2397 6.77967 16.0855C6.00475 15.9314 5.20153 16.0105 4.47157 16.3128C3.74161 16.6152 3.11771 17.1272 2.67875 17.7842C2.23979 18.4411 2.0055 19.2135 2.0055 20.0036C2.0055 21.0631 2.42638 22.0792 3.17556 22.8283C3.92473 23.5775 4.94083 23.9984 6.00032 23.9984Z" fill="black"/>
<path fill-rule="evenodd" clip-rule="evenodd" d="M23.9935 21.9983C24.3892 21.9995 24.7763 21.8833 25.106 21.6644C25.4356 21.4455 25.6929 21.1337 25.8454 20.7686C25.9978 20.4034 26.0385 20.0013 25.9624 19.613C25.8862 19.2247 25.6966 18.8677 25.4175 18.5871C25.1385 18.3066 24.7825 18.1152 24.3945 18.037C24.0066 17.9588 23.6043 17.9975 23.2383 18.148C22.8724 18.2986 22.5593 18.5543 22.3387 18.8828C22.1181 19.2113 21.9999 19.5978 21.999 19.9935C21.9979 20.5238 22.2073 21.0328 22.5813 21.4088C22.9553 21.7847 23.4632 21.9967 23.9935 21.9983ZM23.9935 23.9987C24.7836 23.9987 25.5559 23.7644 26.2129 23.3254C26.8698 22.8865 27.3819 22.2626 27.6842 21.5326C27.9866 20.8026 28.0657 19.9994 27.9115 19.2245C27.7574 18.4496 27.3769 17.7378 26.8182 17.1791C26.2596 16.6204 25.5478 16.2399 24.7728 16.0858C23.9979 15.9317 23.1947 16.0108 22.4647 16.3131C21.7348 16.6155 21.1109 17.1275 20.6719 17.7845C20.233 18.4414 19.9987 19.2138 19.9987 20.0039C19.9987 21.0633 20.4195 22.0794 21.1687 22.8286C21.9179 23.5778 22.934 23.9987 23.9935 23.9987Z" fill="black"/>
</svg>
