<svg width="193" height="29" viewBox="0 0 193 29" fill="none" xmlns="http://www.w3.org/2000/svg">
<path d="M2.25122 18.9096C2.22554 19.1007 2.21246 19.2933 2.21206 19.4861C2.21606 20.1144 2.35314 20.7348 2.61426 21.3064C2.87538 21.8779 3.25463 22.3877 3.72702 22.8021C4.19941 23.2164 4.75423 23.526 5.35493 23.7105C5.95564 23.8949 6.5886 23.95 7.21213 23.8721C7.59604 24.5551 8.15479 25.1235 8.83103 25.5192C9.50727 25.9148 10.2766 26.1233 11.0601 26.1233C11.8436 26.1233 12.6129 25.9148 13.2891 25.5192C13.9654 25.1235 14.5241 24.5551 14.908 23.8721C15.5315 23.9495 16.1643 23.894 16.7647 23.7094C17.3652 23.5248 17.9198 23.2152 18.3921 22.8009C18.8644 22.3866 19.2436 21.8771 19.5049 21.3057C19.7662 20.7344 19.9036 20.1143 19.9081 19.4861C19.9078 19.2933 19.8948 19.1007 19.869 18.9096C20.5519 18.5257 21.1204 17.9669 21.516 17.2907C21.9117 16.6145 22.1202 15.8451 22.1202 15.0617C22.1202 14.2782 21.9117 13.5088 21.516 12.8326C21.1204 12.1564 20.5519 11.5976 19.869 11.2137C19.8948 11.0226 19.9079 10.8301 19.9081 10.6372C19.9041 10.0089 19.767 9.38849 19.5059 8.81693C19.2448 8.24538 18.8655 7.73563 18.3932 7.32125C17.9208 6.90687 17.3659 6.59727 16.7652 6.41284C16.1645 6.2284 15.5316 6.17332 14.908 6.25122C14.5241 5.56825 13.9654 4.99977 13.2891 4.60415C12.6129 4.20852 11.8436 4 11.0601 4C10.2766 4 9.50727 4.20852 8.83103 4.60415C8.15479 4.99977 7.59604 5.56825 7.21213 6.25122C6.58855 6.17306 5.95549 6.22797 5.35468 6.4123C4.75387 6.59664 4.19895 6.90623 3.7265 7.32065C3.25405 7.73508 2.87481 8.24494 2.61376 8.81661C2.35272 9.38829 2.21581 10.0088 2.21206 10.6372C2.21233 10.8301 2.22542 11.0226 2.25122 11.2137C1.56825 11.5976 0.999775 12.1564 0.604147 12.8326C0.208519 13.5088 0 14.2782 0 15.0617C0 15.8451 0.208519 16.6145 0.604147 17.2907C0.999775 17.9669 1.56825 18.5257 2.25122 18.9096ZM3.84585 12.9305L5.06454 12.6172L4.58521 11.4534C4.48129 11.1971 4.42809 10.9232 4.42857 10.6466C4.42754 10.3558 4.48382 10.0677 4.5942 9.79866C4.70458 9.52963 4.86689 9.28498 5.07186 9.0787C5.27683 8.87242 5.52044 8.70855 5.78877 8.59646C6.0571 8.48437 6.34488 8.42626 6.63568 8.42543C6.91216 8.42531 7.18606 8.4785 7.4424 8.58208L8.60783 9.06141L8.92895 7.84742C9.05344 7.37826 9.32954 6.96343 9.71427 6.66747C10.099 6.37152 10.5708 6.21106 11.0562 6.21106C11.5416 6.21106 12.0133 6.37152 12.3981 6.66747C12.7828 6.96343 13.0589 7.37826 13.1834 7.84742L13.5077 9.06611L14.6731 8.58678C14.9294 8.48305 15.2033 8.42985 15.4798 8.43013C15.7706 8.4291 16.0587 8.48539 16.3278 8.59577C16.5968 8.70615 16.8415 8.86846 17.0477 9.07343C17.254 9.2784 17.4179 9.52201 17.53 9.79034C17.6421 10.0587 17.7002 10.3464 17.701 10.6372C17.7013 10.9137 17.6481 11.1877 17.5444 11.444L17.065 12.6078L18.2837 12.9321C18.7516 13.0582 19.1649 13.335 19.4596 13.7197C19.7543 14.1044 19.914 14.5755 19.914 15.0601C19.914 15.5447 19.7543 16.0158 19.4596 16.4005C19.1649 16.7851 18.7516 17.062 18.2837 17.1881L17.065 17.5124L17.5444 18.6762C17.6485 18.9324 17.7017 19.2064 17.701 19.4829C17.7018 19.7744 17.6451 20.0631 17.534 20.3326C17.423 20.6021 17.2598 20.847 17.0538 21.0532C16.8479 21.2594 16.6032 21.423 16.3339 21.5344C16.0646 21.6458 15.776 21.703 15.4845 21.7026C15.208 21.7027 14.9341 21.6495 14.6778 21.5459L13.5124 21.0666L13.1881 22.2853C13.0636 22.7544 12.7875 23.1693 12.4028 23.4652C12.018 23.7612 11.5463 23.9217 11.0609 23.9217C10.5755 23.9217 10.1037 23.7612 9.71897 23.4652C9.33424 23.1693 9.05814 22.7544 8.93365 22.2853L8.61566 21.0572L7.45023 21.5365C7.19397 21.6404 6.92001 21.6936 6.64351 21.6932C6.05703 21.6928 5.49469 21.4596 5.07998 21.0449C4.66528 20.6302 4.43212 20.0678 4.4317 19.4814C4.43142 19.2049 4.48461 18.9309 4.58834 18.6746L5.06768 17.5108L3.84898 17.1865C3.38109 17.0604 2.96782 16.7836 2.67311 16.3989C2.3784 16.0142 2.21869 15.5431 2.21869 15.0585C2.21869 14.5739 2.3784 14.1028 2.67311 13.7182C2.96782 13.3335 3.38109 13.0567 3.84898 12.9305H3.84585Z" fill="#C49235"/>
<path d="M15.2012 13.6353L13.6442 12.0689L9.95994 15.7187L8.52664 14.2854L6.96021 15.8519L9.95054 18.8422L15.2012 13.6353Z" fill="#C49235"/>
<path d="M35 23V7.736H29.096V6.2H42.68V7.736H36.776V23H35ZM44.8291 23V10.4H46.4611V13.832L46.2931 13.232C46.6451 12.272 47.2371 11.544 48.0691 11.048C48.9011 10.536 49.9331 10.28 51.1651 10.28V11.936C51.1011 11.936 51.0371 11.936 50.9731 11.936C50.9091 11.92 50.8451 11.912 50.7811 11.912C49.4531 11.912 48.4131 12.32 47.6611 13.136C46.9091 13.936 46.5331 15.08 46.5331 16.568V23H44.8291ZM59.6699 23.12C58.5979 23.12 57.6619 22.92 56.8619 22.52C56.0619 22.12 55.4379 21.52 54.9899 20.72C54.5579 19.92 54.3419 18.92 54.3419 17.72V10.4H56.0459V17.528C56.0459 18.872 56.3739 19.888 57.0299 20.576C57.7019 21.248 58.6379 21.584 59.8379 21.584C60.7179 21.584 61.4779 21.408 62.1179 21.056C62.7739 20.688 63.2699 20.16 63.6059 19.472C63.9579 18.784 64.1339 17.96 64.1339 17V10.4H65.8379V23H64.2059V19.544L64.4699 20.168C64.0699 21.096 63.4459 21.824 62.5979 22.352C61.7659 22.864 60.7899 23.12 59.6699 23.12ZM73.9709 23.12C72.9309 23.12 71.9469 22.976 71.0189 22.688C70.0909 22.384 69.3629 22.008 68.8349 21.56L69.6029 20.216C70.1149 20.6 70.7709 20.936 71.5709 21.224C72.3709 21.496 73.2109 21.632 74.0909 21.632C75.2909 21.632 76.1549 21.448 76.6829 21.08C77.2109 20.696 77.4749 20.192 77.4749 19.568C77.4749 19.104 77.3229 18.744 77.0189 18.488C76.7309 18.216 76.3469 18.016 75.8669 17.888C75.3869 17.744 74.8509 17.624 74.2589 17.528C73.6669 17.432 73.0749 17.32 72.4829 17.192C71.9069 17.064 71.3789 16.88 70.8989 16.64C70.4189 16.384 70.0269 16.04 69.7229 15.608C69.4349 15.176 69.2909 14.6 69.2909 13.88C69.2909 13.192 69.4829 12.576 69.8669 12.032C70.2509 11.488 70.8109 11.064 71.5469 10.76C72.2989 10.44 73.2109 10.28 74.2829 10.28C75.0989 10.28 75.9149 10.392 76.7309 10.616C77.5469 10.824 78.2189 11.104 78.7469 11.456L78.0029 12.824C77.4429 12.44 76.8429 12.168 76.2029 12.008C75.5629 11.832 74.9229 11.744 74.2829 11.744C73.1469 11.744 72.3069 11.944 71.7629 12.344C71.2349 12.728 70.9709 13.224 70.9709 13.832C70.9709 14.312 71.1149 14.688 71.4029 14.96C71.7069 15.232 72.0989 15.448 72.5789 15.608C73.0749 15.752 73.6109 15.872 74.1869 15.968C74.7789 16.064 75.3629 16.184 75.9389 16.328C76.5309 16.456 77.0669 16.64 77.5469 16.88C78.0429 17.104 78.4349 17.432 78.7229 17.864C79.0269 18.28 79.1789 18.832 79.1789 19.52C79.1789 20.256 78.9709 20.896 78.5549 21.44C78.1549 21.968 77.5629 22.384 76.7789 22.688C76.0109 22.976 75.0749 23.12 73.9709 23.12ZM86.2897 23.12C85.1057 23.12 84.1937 22.8 83.5537 22.16C82.9137 21.52 82.5937 20.616 82.5937 19.448V7.616H84.2977V19.352C84.2977 20.088 84.4817 20.656 84.8497 21.056C85.2337 21.456 85.7777 21.656 86.4817 21.656C87.2337 21.656 87.8577 21.44 88.3537 21.008L88.9537 22.232C88.6177 22.536 88.2097 22.76 87.7297 22.904C87.2657 23.048 86.7857 23.12 86.2897 23.12ZM80.3377 11.816V10.4H88.1377V11.816H80.3377ZM96.9624 23.12C95.6504 23.12 94.4984 22.848 93.5064 22.304C92.5144 21.744 91.7384 20.984 91.1784 20.024C90.6184 19.048 90.3384 17.936 90.3384 16.688C90.3384 15.44 90.6024 14.336 91.1304 13.376C91.6744 12.416 92.4104 11.664 93.3384 11.12C94.2824 10.56 95.3384 10.28 96.5064 10.28C97.6904 10.28 98.7384 10.552 99.6504 11.096C100.578 11.624 101.306 12.376 101.834 13.352C102.362 14.312 102.626 15.424 102.626 16.688C102.626 16.768 102.618 16.856 102.602 16.952C102.602 17.032 102.602 17.12 102.602 17.216H91.6344V15.944H101.69L101.018 16.448C101.018 15.536 100.818 14.728 100.418 14.024C100.034 13.304 99.5064 12.744 98.8344 12.344C98.1624 11.944 97.3864 11.744 96.5064 11.744C95.6424 11.744 94.8664 11.944 94.1784 12.344C93.4904 12.744 92.9544 13.304 92.5704 14.024C92.1864 14.744 91.9944 15.568 91.9944 16.496V16.76C91.9944 17.72 92.2024 18.568 92.6184 19.304C93.0504 20.024 93.6424 20.592 94.3944 21.008C95.1624 21.408 96.0344 21.608 97.0104 21.608C97.7784 21.608 98.4904 21.472 99.1464 21.2C99.8184 20.928 100.394 20.512 100.874 19.952L101.834 21.056C101.274 21.728 100.57 22.24 99.7224 22.592C98.8904 22.944 97.9704 23.12 96.9624 23.12ZM111.111 23.12C109.911 23.12 108.831 22.848 107.871 22.304C106.927 21.76 106.183 21.008 105.639 20.048C105.095 19.072 104.823 17.952 104.823 16.688C104.823 15.408 105.095 14.288 105.639 13.328C106.183 12.368 106.927 11.624 107.871 11.096C108.831 10.552 109.911 10.28 111.111 10.28C112.215 10.28 113.199 10.528 114.063 11.024C114.943 11.52 115.639 12.248 116.151 13.208C116.679 14.152 116.943 15.312 116.943 16.688C116.943 18.048 116.687 19.208 116.175 20.168C115.663 21.128 114.967 21.864 114.087 22.376C113.223 22.872 112.231 23.12 111.111 23.12ZM111.231 21.608C112.127 21.608 112.927 21.408 113.631 21.008C114.351 20.592 114.911 20.016 115.311 19.28C115.727 18.528 115.935 17.664 115.935 16.688C115.935 15.696 115.727 14.832 115.311 14.096C114.911 13.36 114.351 12.792 113.631 12.392C112.927 11.976 112.127 11.768 111.231 11.768C110.351 11.768 109.559 11.976 108.855 12.392C108.151 12.792 107.591 13.36 107.175 14.096C106.759 14.832 106.551 15.696 106.551 16.688C106.551 17.664 106.759 18.528 107.175 19.28C107.591 20.016 108.151 20.592 108.855 21.008C109.559 21.408 110.351 21.608 111.231 21.608ZM115.983 23V19.208L116.151 16.664L115.911 14.12V5.192H117.615V23H115.983ZM133.634 23.144C132.386 23.144 131.186 22.944 130.034 22.544C128.898 22.128 128.018 21.6 127.394 20.96L128.09 19.592C128.682 20.168 129.474 20.656 130.466 21.056C131.474 21.44 132.53 21.632 133.634 21.632C134.69 21.632 135.546 21.504 136.202 21.248C136.874 20.976 137.362 20.616 137.666 20.168C137.986 19.72 138.146 19.224 138.146 18.68C138.146 18.024 137.954 17.496 137.57 17.096C137.202 16.696 136.714 16.384 136.106 16.16C135.498 15.92 134.826 15.712 134.09 15.536C133.354 15.36 132.618 15.176 131.882 14.984C131.146 14.776 130.466 14.504 129.842 14.168C129.234 13.832 128.738 13.392 128.354 12.848C127.986 12.288 127.802 11.56 127.802 10.664C127.802 9.832 128.018 9.072 128.45 8.384C128.898 7.68 129.578 7.12 130.49 6.704C131.402 6.272 132.57 6.056 133.994 6.056C134.938 6.056 135.874 6.192 136.802 6.464C137.73 6.72 138.53 7.08 139.202 7.544L138.602 8.96C137.882 8.48 137.114 8.128 136.298 7.904C135.498 7.68 134.722 7.568 133.97 7.568C132.962 7.568 132.13 7.704 131.474 7.976C130.818 8.248 130.33 8.616 130.01 9.08C129.706 9.528 129.554 10.04 129.554 10.616C129.554 11.272 129.738 11.8 130.106 12.2C130.49 12.6 130.986 12.912 131.594 13.136C132.218 13.36 132.898 13.56 133.634 13.736C134.37 13.912 135.098 14.104 135.818 14.312C136.554 14.52 137.226 14.792 137.834 15.128C138.458 15.448 138.954 15.88 139.322 16.424C139.706 16.968 139.898 17.68 139.898 18.56C139.898 19.376 139.674 20.136 139.226 20.84C138.778 21.528 138.09 22.088 137.162 22.52C136.25 22.936 135.074 23.144 133.634 23.144ZM148.759 23.12C147.447 23.12 146.295 22.848 145.303 22.304C144.311 21.744 143.535 20.984 142.975 20.024C142.415 19.048 142.135 17.936 142.135 16.688C142.135 15.44 142.399 14.336 142.927 13.376C143.471 12.416 144.207 11.664 145.135 11.12C146.079 10.56 147.135 10.28 148.303 10.28C149.487 10.28 150.535 10.552 151.447 11.096C152.375 11.624 153.103 12.376 153.631 13.352C154.159 14.312 154.423 15.424 154.423 16.688C154.423 16.768 154.415 16.856 154.399 16.952C154.399 17.032 154.399 17.12 154.399 17.216H143.431V15.944H153.487L152.815 16.448C152.815 15.536 152.615 14.728 152.215 14.024C151.831 13.304 151.303 12.744 150.631 12.344C149.959 11.944 149.183 11.744 148.303 11.744C147.439 11.744 146.663 11.944 145.975 12.344C145.287 12.744 144.751 13.304 144.367 14.024C143.983 14.744 143.791 15.568 143.791 16.496V16.76C143.791 17.72 143.999 18.568 144.415 19.304C144.847 20.024 145.439 20.592 146.191 21.008C146.959 21.408 147.831 21.608 148.807 21.608C149.575 21.608 150.287 21.472 150.943 21.2C151.615 20.928 152.191 20.512 152.671 19.952L153.631 21.056C153.071 21.728 152.367 22.24 151.519 22.592C150.687 22.944 149.767 23.12 148.759 23.12ZM157.892 23V5.192H159.596V23H157.892ZM164.337 23V5.192H166.041V23H164.337ZM176.134 23.12C174.822 23.12 173.67 22.848 172.678 22.304C171.686 21.744 170.91 20.984 170.35 20.024C169.79 19.048 169.51 17.936 169.51 16.688C169.51 15.44 169.774 14.336 170.302 13.376C170.846 12.416 171.582 11.664 172.51 11.12C173.454 10.56 174.51 10.28 175.678 10.28C176.862 10.28 177.91 10.552 178.822 11.096C179.75 11.624 180.478 12.376 181.006 13.352C181.534 14.312 181.798 15.424 181.798 16.688C181.798 16.768 181.79 16.856 181.774 16.952C181.774 17.032 181.774 17.12 181.774 17.216H170.806V15.944H180.862L180.19 16.448C180.19 15.536 179.99 14.728 179.59 14.024C179.206 13.304 178.678 12.744 178.006 12.344C177.334 11.944 176.558 11.744 175.678 11.744C174.814 11.744 174.038 11.944 173.35 12.344C172.662 12.744 172.126 13.304 171.742 14.024C171.358 14.744 171.166 15.568 171.166 16.496V16.76C171.166 17.72 171.374 18.568 171.79 19.304C172.222 20.024 172.814 20.592 173.566 21.008C174.334 21.408 175.206 21.608 176.182 21.608C176.95 21.608 177.662 21.472 178.318 21.2C178.99 20.928 179.566 20.512 180.046 19.952L181.006 21.056C180.446 21.728 179.742 22.24 178.894 22.592C178.062 22.944 177.142 23.12 176.134 23.12ZM185.267 23V10.4H186.899V13.832L186.731 13.232C187.083 12.272 187.675 11.544 188.507 11.048C189.339 10.536 190.371 10.28 191.603 10.28V11.936C191.539 11.936 191.475 11.936 191.411 11.936C191.347 11.92 191.283 11.912 191.219 11.912C189.891 11.912 188.851 12.32 188.099 13.136C187.347 13.936 186.971 15.08 186.971 16.568V23H185.267Z" fill="#C49235"/>
</svg>
